<mxfile host="app.diagrams.net" agent="Mozilla/5.0 (Windows NT 10.0; Win64; x64) AppleWebKit/537.36 (KHTML, like Gecko) Chrome/128.0.0.0 Safari/537.36" version="24.7.8">
  <diagram id="C5RBs43oDa-KdzZeNtuy" name="Page-1">
    <mxGraphModel dx="1761" dy="2080" grid="1" gridSize="10" guides="1" tooltips="1" connect="1" arrows="1" fold="1" page="1" pageScale="1" pageWidth="827" pageHeight="1169" math="0" shadow="0">
      <root>
        <mxCell id="WIyWlLk6GJQsqaUBKTNV-0" />
        <mxCell id="WIyWlLk6GJQsqaUBKTNV-1" parent="WIyWlLk6GJQsqaUBKTNV-0" />
        <mxCell id="Mb-qoXPzU37wC8ymkV0u-2" style="edgeStyle=orthogonalEdgeStyle;rounded=0;orthogonalLoop=1;jettySize=auto;html=1;entryX=0.5;entryY=0;entryDx=0;entryDy=0;entryPerimeter=0;" edge="1" parent="WIyWlLk6GJQsqaUBKTNV-1" source="Mb-qoXPzU37wC8ymkV0u-19" target="Mb-qoXPzU37wC8ymkV0u-17">
          <mxGeometry relative="1" as="geometry">
            <mxPoint x="2.2737367544323206e-13" y="-10" as="targetPoint" />
          </mxGeometry>
        </mxCell>
        <mxCell id="Mb-qoXPzU37wC8ymkV0u-0" value="Start" style="strokeWidth=2;html=1;shape=mxgraph.flowchart.start_1;whiteSpace=wrap;" vertex="1" parent="WIyWlLk6GJQsqaUBKTNV-1">
          <mxGeometry x="-30" y="-190" width="60" height="40" as="geometry" />
        </mxCell>
        <mxCell id="Mb-qoXPzU37wC8ymkV0u-4" value="" style="edgeStyle=orthogonalEdgeStyle;rounded=0;orthogonalLoop=1;jettySize=auto;html=1;" edge="1" parent="WIyWlLk6GJQsqaUBKTNV-1" target="Mb-qoXPzU37wC8ymkV0u-3">
          <mxGeometry relative="1" as="geometry">
            <mxPoint x="-54.99999999999977" y="15" as="sourcePoint" />
          </mxGeometry>
        </mxCell>
        <mxCell id="Mb-qoXPzU37wC8ymkV0u-6" value="" style="edgeStyle=orthogonalEdgeStyle;rounded=0;orthogonalLoop=1;jettySize=auto;html=1;" edge="1" parent="WIyWlLk6GJQsqaUBKTNV-1" target="Mb-qoXPzU37wC8ymkV0u-5">
          <mxGeometry relative="1" as="geometry">
            <mxPoint x="-29.999999999999773" y="40" as="sourcePoint" />
            <Array as="points">
              <mxPoint x="-30" y="60" />
              <mxPoint x="-235" y="60" />
            </Array>
          </mxGeometry>
        </mxCell>
        <mxCell id="Mb-qoXPzU37wC8ymkV0u-8" value="" style="edgeStyle=orthogonalEdgeStyle;rounded=0;orthogonalLoop=1;jettySize=auto;html=1;" edge="1" parent="WIyWlLk6GJQsqaUBKTNV-1" target="Mb-qoXPzU37wC8ymkV0u-7">
          <mxGeometry relative="1" as="geometry">
            <mxPoint x="55.00000000000023" y="15" as="sourcePoint" />
          </mxGeometry>
        </mxCell>
        <mxCell id="Mb-qoXPzU37wC8ymkV0u-10" value="" style="edgeStyle=orthogonalEdgeStyle;rounded=0;orthogonalLoop=1;jettySize=auto;html=1;" edge="1" parent="WIyWlLk6GJQsqaUBKTNV-1" target="Mb-qoXPzU37wC8ymkV0u-9">
          <mxGeometry relative="1" as="geometry">
            <mxPoint x="2.2737367544323206e-13" y="40" as="sourcePoint" />
          </mxGeometry>
        </mxCell>
        <mxCell id="Mb-qoXPzU37wC8ymkV0u-11" value="" style="edgeStyle=orthogonalEdgeStyle;rounded=0;orthogonalLoop=1;jettySize=auto;html=1;" edge="1" parent="WIyWlLk6GJQsqaUBKTNV-1" target="Mb-qoXPzU37wC8ymkV0u-9">
          <mxGeometry relative="1" as="geometry">
            <mxPoint x="2.2737367544323206e-13" y="40" as="sourcePoint" />
          </mxGeometry>
        </mxCell>
        <mxCell id="Mb-qoXPzU37wC8ymkV0u-12" style="edgeStyle=orthogonalEdgeStyle;rounded=0;orthogonalLoop=1;jettySize=auto;html=1;exitX=0.75;exitY=1;exitDx=0;exitDy=0;" edge="1" parent="WIyWlLk6GJQsqaUBKTNV-1" target="Mb-qoXPzU37wC8ymkV0u-15">
          <mxGeometry relative="1" as="geometry">
            <mxPoint x="130" y="130" as="targetPoint" />
            <mxPoint x="27.500000000000227" y="40" as="sourcePoint" />
            <Array as="points">
              <mxPoint x="28" y="60" />
              <mxPoint x="230" y="60" />
            </Array>
          </mxGeometry>
        </mxCell>
        <mxCell id="Mb-qoXPzU37wC8ymkV0u-21" value="" style="edgeStyle=orthogonalEdgeStyle;rounded=0;orthogonalLoop=1;jettySize=auto;html=1;" edge="1" parent="WIyWlLk6GJQsqaUBKTNV-1" source="Mb-qoXPzU37wC8ymkV0u-3" target="Mb-qoXPzU37wC8ymkV0u-20">
          <mxGeometry relative="1" as="geometry" />
        </mxCell>
        <mxCell id="Mb-qoXPzU37wC8ymkV0u-3" value="Late" style="whiteSpace=wrap;html=1;strokeWidth=2;rounded=1;arcSize=11;" vertex="1" parent="WIyWlLk6GJQsqaUBKTNV-1">
          <mxGeometry x="-500" y="-3.75" width="80" height="37.5" as="geometry" />
        </mxCell>
        <mxCell id="Mb-qoXPzU37wC8ymkV0u-59" value="" style="edgeStyle=orthogonalEdgeStyle;rounded=0;orthogonalLoop=1;jettySize=auto;html=1;" edge="1" parent="WIyWlLk6GJQsqaUBKTNV-1" source="Mb-qoXPzU37wC8ymkV0u-5" target="Mb-qoXPzU37wC8ymkV0u-58">
          <mxGeometry relative="1" as="geometry" />
        </mxCell>
        <mxCell id="Mb-qoXPzU37wC8ymkV0u-5" value="Dress Code" style="whiteSpace=wrap;html=1;strokeWidth=2;rounded=1;arcSize=11;" vertex="1" parent="WIyWlLk6GJQsqaUBKTNV-1">
          <mxGeometry x="-280" y="80" width="90" height="45" as="geometry" />
        </mxCell>
        <mxCell id="Mb-qoXPzU37wC8ymkV0u-83" value="" style="edgeStyle=orthogonalEdgeStyle;rounded=0;orthogonalLoop=1;jettySize=auto;html=1;entryX=0.5;entryY=0;entryDx=0;entryDy=0;" edge="1" parent="WIyWlLk6GJQsqaUBKTNV-1" source="Mb-qoXPzU37wC8ymkV0u-7" target="Mb-qoXPzU37wC8ymkV0u-96">
          <mxGeometry relative="1" as="geometry">
            <mxPoint x="440" y="100" as="targetPoint" />
          </mxGeometry>
        </mxCell>
        <mxCell id="Mb-qoXPzU37wC8ymkV0u-7" value="Piercings" style="rounded=1;whiteSpace=wrap;html=1;strokeWidth=2;arcSize=11;" vertex="1" parent="WIyWlLk6GJQsqaUBKTNV-1">
          <mxGeometry x="395" y="-1.25" width="100" height="35" as="geometry" />
        </mxCell>
        <mxCell id="Mb-qoXPzU37wC8ymkV0u-57" value="" style="edgeStyle=orthogonalEdgeStyle;rounded=0;orthogonalLoop=1;jettySize=auto;html=1;" edge="1" parent="WIyWlLk6GJQsqaUBKTNV-1" source="Mb-qoXPzU37wC8ymkV0u-9" target="Mb-qoXPzU37wC8ymkV0u-56">
          <mxGeometry relative="1" as="geometry" />
        </mxCell>
        <mxCell id="Mb-qoXPzU37wC8ymkV0u-9" value="Grooming" style="whiteSpace=wrap;html=1;strokeWidth=2;rounded=1;arcSize=11;" vertex="1" parent="WIyWlLk6GJQsqaUBKTNV-1">
          <mxGeometry x="-45" y="120" width="90" height="25" as="geometry" />
        </mxCell>
        <mxCell id="Mb-qoXPzU37wC8ymkV0u-74" value="" style="edgeStyle=orthogonalEdgeStyle;rounded=0;orthogonalLoop=1;jettySize=auto;html=1;entryX=1;entryY=0.5;entryDx=0;entryDy=0;" edge="1" parent="WIyWlLk6GJQsqaUBKTNV-1" source="Mb-qoXPzU37wC8ymkV0u-15" target="Mb-qoXPzU37wC8ymkV0u-79">
          <mxGeometry relative="1" as="geometry">
            <mxPoint x="230" y="170" as="targetPoint" />
            <Array as="points">
              <mxPoint x="230" y="450" />
            </Array>
          </mxGeometry>
        </mxCell>
        <mxCell id="Mb-qoXPzU37wC8ymkV0u-15" value="No Handbook" style="rounded=1;whiteSpace=wrap;html=1;absoluteArcSize=1;arcSize=14;strokeWidth=2;" vertex="1" parent="WIyWlLk6GJQsqaUBKTNV-1">
          <mxGeometry x="180" y="90" width="100" height="30" as="geometry" />
        </mxCell>
        <mxCell id="Mb-qoXPzU37wC8ymkV0u-17" value="Violation type?" style="strokeWidth=2;html=1;shape=mxgraph.flowchart.decision;whiteSpace=wrap;" vertex="1" parent="WIyWlLk6GJQsqaUBKTNV-1">
          <mxGeometry x="-60" y="-21" width="120" height="72" as="geometry" />
        </mxCell>
        <mxCell id="Mb-qoXPzU37wC8ymkV0u-18" value="" style="edgeStyle=orthogonalEdgeStyle;rounded=0;orthogonalLoop=1;jettySize=auto;html=1;entryX=0.5;entryY=0;entryDx=0;entryDy=0;entryPerimeter=0;" edge="1" parent="WIyWlLk6GJQsqaUBKTNV-1" source="Mb-qoXPzU37wC8ymkV0u-0" target="Mb-qoXPzU37wC8ymkV0u-19">
          <mxGeometry relative="1" as="geometry">
            <mxPoint y="-170" as="sourcePoint" />
            <mxPoint y="-21" as="targetPoint" />
          </mxGeometry>
        </mxCell>
        <mxCell id="Mb-qoXPzU37wC8ymkV0u-19" value="&lt;div&gt;&lt;br&gt;&lt;/div&gt;Violation input" style="html=1;strokeWidth=2;shape=manualInput;whiteSpace=wrap;rounded=1;size=26;arcSize=11;" vertex="1" parent="WIyWlLk6GJQsqaUBKTNV-1">
          <mxGeometry x="-55" y="-110" width="110" height="50" as="geometry" />
        </mxCell>
        <mxCell id="Mb-qoXPzU37wC8ymkV0u-23" value="" style="edgeStyle=orthogonalEdgeStyle;rounded=0;orthogonalLoop=1;jettySize=auto;html=1;" edge="1" parent="WIyWlLk6GJQsqaUBKTNV-1" source="Mb-qoXPzU37wC8ymkV0u-20" target="Mb-qoXPzU37wC8ymkV0u-22">
          <mxGeometry relative="1" as="geometry" />
        </mxCell>
        <mxCell id="Mb-qoXPzU37wC8ymkV0u-20" value="Guard blocks entry" style="whiteSpace=wrap;html=1;strokeWidth=2;rounded=1;arcSize=11;" vertex="1" parent="WIyWlLk6GJQsqaUBKTNV-1">
          <mxGeometry x="-520" y="80" width="120" height="46.25" as="geometry" />
        </mxCell>
        <mxCell id="Mb-qoXPzU37wC8ymkV0u-25" value="" style="edgeStyle=orthogonalEdgeStyle;rounded=0;orthogonalLoop=1;jettySize=auto;html=1;" edge="1" parent="WIyWlLk6GJQsqaUBKTNV-1" source="Mb-qoXPzU37wC8ymkV0u-22" target="Mb-qoXPzU37wC8ymkV0u-24">
          <mxGeometry relative="1" as="geometry" />
        </mxCell>
        <mxCell id="Mb-qoXPzU37wC8ymkV0u-22" value="Student sent to OPD" style="whiteSpace=wrap;html=1;strokeWidth=2;rounded=1;arcSize=11;" vertex="1" parent="WIyWlLk6GJQsqaUBKTNV-1">
          <mxGeometry x="-525" y="170" width="130" height="60" as="geometry" />
        </mxCell>
        <mxCell id="Mb-qoXPzU37wC8ymkV0u-27" value="" style="edgeStyle=orthogonalEdgeStyle;rounded=0;orthogonalLoop=1;jettySize=auto;html=1;exitX=0;exitY=0;exitDx=0;exitDy=0;" edge="1" parent="WIyWlLk6GJQsqaUBKTNV-1" source="Mb-qoXPzU37wC8ymkV0u-24" target="Mb-qoXPzU37wC8ymkV0u-34">
          <mxGeometry relative="1" as="geometry">
            <mxPoint x="-600" y="309.99999999999955" as="targetPoint" />
          </mxGeometry>
        </mxCell>
        <mxCell id="Mb-qoXPzU37wC8ymkV0u-28" value="No" style="edgeLabel;html=1;align=center;verticalAlign=middle;resizable=0;points=[];" vertex="1" connectable="0" parent="Mb-qoXPzU37wC8ymkV0u-27">
          <mxGeometry x="0.0794" y="2" relative="1" as="geometry">
            <mxPoint x="3" y="-2" as="offset" />
          </mxGeometry>
        </mxCell>
        <mxCell id="Mb-qoXPzU37wC8ymkV0u-30" value="" style="edgeStyle=orthogonalEdgeStyle;rounded=0;orthogonalLoop=1;jettySize=auto;html=1;" edge="1" parent="WIyWlLk6GJQsqaUBKTNV-1" source="Mb-qoXPzU37wC8ymkV0u-24" target="Mb-qoXPzU37wC8ymkV0u-29">
          <mxGeometry relative="1" as="geometry" />
        </mxCell>
        <mxCell id="Mb-qoXPzU37wC8ymkV0u-33" value="Yes" style="edgeLabel;html=1;align=center;verticalAlign=middle;resizable=0;points=[];" vertex="1" connectable="0" parent="Mb-qoXPzU37wC8ymkV0u-30">
          <mxGeometry x="-0.1679" relative="1" as="geometry">
            <mxPoint y="1" as="offset" />
          </mxGeometry>
        </mxCell>
        <mxCell id="Mb-qoXPzU37wC8ymkV0u-36" style="edgeStyle=orthogonalEdgeStyle;rounded=0;orthogonalLoop=1;jettySize=auto;html=1;exitX=0;exitY=1;exitDx=0;exitDy=0;" edge="1" parent="WIyWlLk6GJQsqaUBKTNV-1" source="Mb-qoXPzU37wC8ymkV0u-24" target="Mb-qoXPzU37wC8ymkV0u-37">
          <mxGeometry relative="1" as="geometry">
            <mxPoint x="-590" y="360.00000000000045" as="targetPoint" />
            <Array as="points">
              <mxPoint x="-550" y="308" />
              <mxPoint x="-550" y="400" />
            </Array>
          </mxGeometry>
        </mxCell>
        <mxCell id="Mb-qoXPzU37wC8ymkV0u-38" value="No" style="edgeLabel;html=1;align=center;verticalAlign=middle;resizable=0;points=[];" vertex="1" connectable="0" parent="Mb-qoXPzU37wC8ymkV0u-36">
          <mxGeometry x="-0.1773" y="5" relative="1" as="geometry">
            <mxPoint x="-5" y="7" as="offset" />
          </mxGeometry>
        </mxCell>
        <mxCell id="Mb-qoXPzU37wC8ymkV0u-24" value="Valid excuse?" style="rhombus;whiteSpace=wrap;html=1;strokeWidth=2;rounded=1;arcSize=11;" vertex="1" parent="WIyWlLk6GJQsqaUBKTNV-1">
          <mxGeometry x="-510" y="270" width="100" height="50" as="geometry" />
        </mxCell>
        <mxCell id="Mb-qoXPzU37wC8ymkV0u-69" style="edgeStyle=orthogonalEdgeStyle;rounded=0;orthogonalLoop=1;jettySize=auto;html=1;entryX=0;entryY=0.5;entryDx=0;entryDy=0;" edge="1" parent="WIyWlLk6GJQsqaUBKTNV-1" source="Mb-qoXPzU37wC8ymkV0u-29" target="Mb-qoXPzU37wC8ymkV0u-79">
          <mxGeometry relative="1" as="geometry" />
        </mxCell>
        <mxCell id="Mb-qoXPzU37wC8ymkV0u-29" value="Issue blue slip" style="whiteSpace=wrap;html=1;strokeWidth=2;rounded=1;arcSize=11;" vertex="1" parent="WIyWlLk6GJQsqaUBKTNV-1">
          <mxGeometry x="-510" y="425" width="100" height="50" as="geometry" />
        </mxCell>
        <mxCell id="Mb-qoXPzU37wC8ymkV0u-48" value="" style="edgeStyle=orthogonalEdgeStyle;rounded=0;orthogonalLoop=1;jettySize=auto;html=1;entryX=0.5;entryY=0;entryDx=0;entryDy=0;entryPerimeter=0;" edge="1" parent="WIyWlLk6GJQsqaUBKTNV-1" source="Mb-qoXPzU37wC8ymkV0u-68" target="Mb-qoXPzU37wC8ymkV0u-49">
          <mxGeometry relative="1" as="geometry">
            <mxPoint x="-123.75" y="670.0000000000005" as="targetPoint" />
          </mxGeometry>
        </mxCell>
        <mxCell id="Mb-qoXPzU37wC8ymkV0u-31" value="Record violation" style="whiteSpace=wrap;html=1;strokeWidth=2;rounded=1;arcSize=11;" vertex="1" parent="WIyWlLk6GJQsqaUBKTNV-1">
          <mxGeometry x="-181.25" y="520" width="120" height="60" as="geometry" />
        </mxCell>
        <mxCell id="Mb-qoXPzU37wC8ymkV0u-35" style="edgeStyle=orthogonalEdgeStyle;rounded=0;orthogonalLoop=1;jettySize=auto;html=1;entryX=0;entryY=0.5;entryDx=0;entryDy=0;" edge="1" parent="WIyWlLk6GJQsqaUBKTNV-1" source="Mb-qoXPzU37wC8ymkV0u-34" target="Mb-qoXPzU37wC8ymkV0u-22">
          <mxGeometry relative="1" as="geometry">
            <Array as="points">
              <mxPoint x="-660" y="200" />
            </Array>
          </mxGeometry>
        </mxCell>
        <mxCell id="Mb-qoXPzU37wC8ymkV0u-34" value="Proceed to class without slip" style="rounded=1;whiteSpace=wrap;html=1;absoluteArcSize=1;arcSize=14;strokeWidth=2;" vertex="1" parent="WIyWlLk6GJQsqaUBKTNV-1">
          <mxGeometry x="-710" y="250" width="100" height="65" as="geometry" />
        </mxCell>
        <mxCell id="Mb-qoXPzU37wC8ymkV0u-40" value="" style="edgeStyle=orthogonalEdgeStyle;rounded=0;orthogonalLoop=1;jettySize=auto;html=1;" edge="1" parent="WIyWlLk6GJQsqaUBKTNV-1" source="Mb-qoXPzU37wC8ymkV0u-37" target="Mb-qoXPzU37wC8ymkV0u-39">
          <mxGeometry relative="1" as="geometry" />
        </mxCell>
        <mxCell id="Mb-qoXPzU37wC8ymkV0u-37" value="Skip class" style="rounded=1;whiteSpace=wrap;html=1;absoluteArcSize=1;arcSize=14;strokeWidth=2;" vertex="1" parent="WIyWlLk6GJQsqaUBKTNV-1">
          <mxGeometry x="-710" y="370" width="100" height="60" as="geometry" />
        </mxCell>
        <mxCell id="Mb-qoXPzU37wC8ymkV0u-39" value="Risk suspension" style="whiteSpace=wrap;html=1;rounded=1;arcSize=14;strokeWidth=2;" vertex="1" parent="WIyWlLk6GJQsqaUBKTNV-1">
          <mxGeometry x="-720" y="480" width="120" height="60" as="geometry" />
        </mxCell>
        <mxCell id="Mb-qoXPzU37wC8ymkV0u-51" value="" style="edgeStyle=orthogonalEdgeStyle;rounded=0;orthogonalLoop=1;jettySize=auto;html=1;" edge="1" parent="WIyWlLk6GJQsqaUBKTNV-1" source="Mb-qoXPzU37wC8ymkV0u-49" target="Mb-qoXPzU37wC8ymkV0u-50">
          <mxGeometry relative="1" as="geometry" />
        </mxCell>
        <mxCell id="Mb-qoXPzU37wC8ymkV0u-52" value="5th" style="edgeLabel;html=1;align=center;verticalAlign=middle;resizable=0;points=[];" vertex="1" connectable="0" parent="Mb-qoXPzU37wC8ymkV0u-51">
          <mxGeometry x="-0.2069" y="4" relative="1" as="geometry">
            <mxPoint as="offset" />
          </mxGeometry>
        </mxCell>
        <mxCell id="Mb-qoXPzU37wC8ymkV0u-54" value="" style="edgeStyle=orthogonalEdgeStyle;rounded=0;orthogonalLoop=1;jettySize=auto;html=1;" edge="1" parent="WIyWlLk6GJQsqaUBKTNV-1" source="Mb-qoXPzU37wC8ymkV0u-49" target="Mb-qoXPzU37wC8ymkV0u-53">
          <mxGeometry relative="1" as="geometry" />
        </mxCell>
        <mxCell id="Mb-qoXPzU37wC8ymkV0u-55" value="10th" style="edgeLabel;html=1;align=center;verticalAlign=middle;resizable=0;points=[];" vertex="1" connectable="0" parent="Mb-qoXPzU37wC8ymkV0u-54">
          <mxGeometry x="-0.1457" y="-2" relative="1" as="geometry">
            <mxPoint as="offset" />
          </mxGeometry>
        </mxCell>
        <mxCell id="Mb-qoXPzU37wC8ymkV0u-49" value="Repeat offenses?" style="strokeWidth=2;html=1;shape=mxgraph.flowchart.decision;whiteSpace=wrap;" vertex="1" parent="WIyWlLk6GJQsqaUBKTNV-1">
          <mxGeometry x="-186.25" y="740" width="130" height="100" as="geometry" />
        </mxCell>
        <mxCell id="Mb-qoXPzU37wC8ymkV0u-50" value="Issue blue slip" style="whiteSpace=wrap;html=1;strokeWidth=2;" vertex="1" parent="WIyWlLk6GJQsqaUBKTNV-1">
          <mxGeometry x="-181.25" y="910" width="120" height="60" as="geometry" />
        </mxCell>
        <mxCell id="Mb-qoXPzU37wC8ymkV0u-53" value="Issue letter to parents" style="whiteSpace=wrap;html=1;strokeWidth=2;" vertex="1" parent="WIyWlLk6GJQsqaUBKTNV-1">
          <mxGeometry x="-450" y="760" width="120" height="60" as="geometry" />
        </mxCell>
        <mxCell id="Mb-qoXPzU37wC8ymkV0u-64" style="edgeStyle=orthogonalEdgeStyle;rounded=0;orthogonalLoop=1;jettySize=auto;html=1;entryX=1;entryY=0;entryDx=0;entryDy=0;" edge="1" parent="WIyWlLk6GJQsqaUBKTNV-1" source="Mb-qoXPzU37wC8ymkV0u-56" target="Mb-qoXPzU37wC8ymkV0u-62">
          <mxGeometry relative="1" as="geometry">
            <Array as="points">
              <mxPoint y="260" />
              <mxPoint x="-94" y="260" />
              <mxPoint x="-94" y="298" />
              <mxPoint x="-94" y="298" />
            </Array>
          </mxGeometry>
        </mxCell>
        <mxCell id="Mb-qoXPzU37wC8ymkV0u-56" value="Monthly check" style="whiteSpace=wrap;html=1;strokeWidth=2;rounded=1;arcSize=11;" vertex="1" parent="WIyWlLk6GJQsqaUBKTNV-1">
          <mxGeometry x="-60" y="200" width="120" height="42.5" as="geometry" />
        </mxCell>
        <mxCell id="Mb-qoXPzU37wC8ymkV0u-63" value="" style="edgeStyle=orthogonalEdgeStyle;rounded=0;orthogonalLoop=1;jettySize=auto;html=1;" edge="1" parent="WIyWlLk6GJQsqaUBKTNV-1" source="Mb-qoXPzU37wC8ymkV0u-58" target="Mb-qoXPzU37wC8ymkV0u-62">
          <mxGeometry relative="1" as="geometry">
            <Array as="points">
              <mxPoint x="-235" y="260" />
              <mxPoint x="-150" y="260" />
            </Array>
          </mxGeometry>
        </mxCell>
        <mxCell id="Mb-qoXPzU37wC8ymkV0u-58" value="All hour checking" style="whiteSpace=wrap;html=1;strokeWidth=2;rounded=1;arcSize=11;" vertex="1" parent="WIyWlLk6GJQsqaUBKTNV-1">
          <mxGeometry x="-292.5" y="190" width="115" height="32.5" as="geometry" />
        </mxCell>
        <mxCell id="Mb-qoXPzU37wC8ymkV0u-66" value="" style="edgeStyle=orthogonalEdgeStyle;rounded=0;orthogonalLoop=1;jettySize=auto;html=1;entryX=0.5;entryY=0;entryDx=0;entryDy=0;" edge="1" parent="WIyWlLk6GJQsqaUBKTNV-1" source="Mb-qoXPzU37wC8ymkV0u-79" target="Mb-qoXPzU37wC8ymkV0u-31">
          <mxGeometry relative="1" as="geometry">
            <mxPoint x="-123" y="400" as="targetPoint" />
          </mxGeometry>
        </mxCell>
        <mxCell id="Mb-qoXPzU37wC8ymkV0u-62" value="Valid dress&lt;div&gt;code?&lt;/div&gt;" style="rhombus;whiteSpace=wrap;html=1;strokeWidth=2;rounded=1;arcSize=11;" vertex="1" parent="WIyWlLk6GJQsqaUBKTNV-1">
          <mxGeometry x="-180" y="280" width="115" height="80" as="geometry" />
        </mxCell>
        <mxCell id="Mb-qoXPzU37wC8ymkV0u-67" value="" style="edgeStyle=orthogonalEdgeStyle;rounded=0;orthogonalLoop=1;jettySize=auto;html=1;entryX=0.5;entryY=0;entryDx=0;entryDy=0;entryPerimeter=0;" edge="1" parent="WIyWlLk6GJQsqaUBKTNV-1" source="Mb-qoXPzU37wC8ymkV0u-31" target="Mb-qoXPzU37wC8ymkV0u-68">
          <mxGeometry relative="1" as="geometry">
            <mxPoint x="-113.75" y="580" as="sourcePoint" />
            <mxPoint x="-113.75" y="750" as="targetPoint" />
          </mxGeometry>
        </mxCell>
        <mxCell id="Mb-qoXPzU37wC8ymkV0u-68" value="Release ID" style="rounded=1;whiteSpace=wrap;html=1;absoluteArcSize=1;arcSize=14;strokeWidth=2;" vertex="1" parent="WIyWlLk6GJQsqaUBKTNV-1">
          <mxGeometry x="-171.25" y="630" width="100" height="60" as="geometry" />
        </mxCell>
        <mxCell id="Mb-qoXPzU37wC8ymkV0u-77" value="" style="edgeStyle=orthogonalEdgeStyle;rounded=0;orthogonalLoop=1;jettySize=auto;html=1;entryX=0.5;entryY=0;entryDx=0;entryDy=0;" edge="1" parent="WIyWlLk6GJQsqaUBKTNV-1" source="Mb-qoXPzU37wC8ymkV0u-62" target="Mb-qoXPzU37wC8ymkV0u-79">
          <mxGeometry relative="1" as="geometry">
            <mxPoint x="-122" y="360" as="sourcePoint" />
            <mxPoint x="-122" y="610" as="targetPoint" />
          </mxGeometry>
        </mxCell>
        <mxCell id="Mb-qoXPzU37wC8ymkV0u-78" value="No" style="edgeLabel;html=1;align=center;verticalAlign=middle;resizable=0;points=[];" vertex="1" connectable="0" parent="Mb-qoXPzU37wC8ymkV0u-77">
          <mxGeometry x="-0.5279" y="-4" relative="1" as="geometry">
            <mxPoint x="5" y="11" as="offset" />
          </mxGeometry>
        </mxCell>
        <mxCell id="Mb-qoXPzU37wC8ymkV0u-79" value="Confiscate ID" style="rounded=1;whiteSpace=wrap;html=1;absoluteArcSize=1;arcSize=14;strokeWidth=2;" vertex="1" parent="WIyWlLk6GJQsqaUBKTNV-1">
          <mxGeometry x="-186.25" y="430" width="128.75" height="40" as="geometry" />
        </mxCell>
        <mxCell id="Mb-qoXPzU37wC8ymkV0u-84" value="" style="edgeStyle=orthogonalEdgeStyle;rounded=0;orthogonalLoop=1;jettySize=auto;html=1;entryX=0.5;entryY=0;entryDx=0;entryDy=0;entryPerimeter=0;" edge="1" parent="WIyWlLk6GJQsqaUBKTNV-1" source="Mb-qoXPzU37wC8ymkV0u-95" target="Mb-qoXPzU37wC8ymkV0u-90">
          <mxGeometry relative="1" as="geometry">
            <mxPoint x="442.5" y="340.00000000000045" as="targetPoint" />
          </mxGeometry>
        </mxCell>
        <mxCell id="Mb-qoXPzU37wC8ymkV0u-85" value="Record violation" style="whiteSpace=wrap;html=1;strokeWidth=2;rounded=1;arcSize=11;" vertex="1" parent="WIyWlLk6GJQsqaUBKTNV-1">
          <mxGeometry x="385" y="190" width="120" height="60" as="geometry" />
        </mxCell>
        <mxCell id="Mb-qoXPzU37wC8ymkV0u-86" value="" style="edgeStyle=orthogonalEdgeStyle;rounded=0;orthogonalLoop=1;jettySize=auto;html=1;" edge="1" parent="WIyWlLk6GJQsqaUBKTNV-1" source="Mb-qoXPzU37wC8ymkV0u-90" target="Mb-qoXPzU37wC8ymkV0u-91">
          <mxGeometry relative="1" as="geometry" />
        </mxCell>
        <mxCell id="Mb-qoXPzU37wC8ymkV0u-87" value="No" style="edgeLabel;html=1;align=center;verticalAlign=middle;resizable=0;points=[];" vertex="1" connectable="0" parent="Mb-qoXPzU37wC8ymkV0u-86">
          <mxGeometry x="-0.2069" y="4" relative="1" as="geometry">
            <mxPoint as="offset" />
          </mxGeometry>
        </mxCell>
        <mxCell id="Mb-qoXPzU37wC8ymkV0u-88" value="" style="edgeStyle=orthogonalEdgeStyle;rounded=0;orthogonalLoop=1;jettySize=auto;html=1;" edge="1" parent="WIyWlLk6GJQsqaUBKTNV-1" source="Mb-qoXPzU37wC8ymkV0u-90" target="Mb-qoXPzU37wC8ymkV0u-92">
          <mxGeometry relative="1" as="geometry" />
        </mxCell>
        <mxCell id="Mb-qoXPzU37wC8ymkV0u-89" value="10th" style="edgeLabel;html=1;align=center;verticalAlign=middle;resizable=0;points=[];" vertex="1" connectable="0" parent="Mb-qoXPzU37wC8ymkV0u-88">
          <mxGeometry x="-0.1457" y="-2" relative="1" as="geometry">
            <mxPoint as="offset" />
          </mxGeometry>
        </mxCell>
        <mxCell id="Mb-qoXPzU37wC8ymkV0u-97" value="Yes" style="edgeLabel;html=1;align=center;verticalAlign=middle;resizable=0;points=[];" vertex="1" connectable="0" parent="Mb-qoXPzU37wC8ymkV0u-88">
          <mxGeometry x="-0.1683" y="1" relative="1" as="geometry">
            <mxPoint x="1" as="offset" />
          </mxGeometry>
        </mxCell>
        <mxCell id="Mb-qoXPzU37wC8ymkV0u-90" value="3rd Offense?" style="strokeWidth=2;html=1;shape=mxgraph.flowchart.decision;whiteSpace=wrap;" vertex="1" parent="WIyWlLk6GJQsqaUBKTNV-1">
          <mxGeometry x="380" y="410" width="130" height="100" as="geometry" />
        </mxCell>
        <mxCell id="Mb-qoXPzU37wC8ymkV0u-91" value="Issue blue slip" style="whiteSpace=wrap;html=1;strokeWidth=2;" vertex="1" parent="WIyWlLk6GJQsqaUBKTNV-1">
          <mxGeometry x="385" y="580" width="120" height="60" as="geometry" />
        </mxCell>
        <mxCell id="Mb-qoXPzU37wC8ymkV0u-92" value="Issue letter to parents" style="whiteSpace=wrap;html=1;strokeWidth=2;" vertex="1" parent="WIyWlLk6GJQsqaUBKTNV-1">
          <mxGeometry x="592.5" y="430" width="120" height="60" as="geometry" />
        </mxCell>
        <mxCell id="Mb-qoXPzU37wC8ymkV0u-93" value="" style="edgeStyle=orthogonalEdgeStyle;rounded=0;orthogonalLoop=1;jettySize=auto;html=1;entryX=0.5;entryY=0;entryDx=0;entryDy=0;" edge="1" parent="WIyWlLk6GJQsqaUBKTNV-1" source="Mb-qoXPzU37wC8ymkV0u-96" target="Mb-qoXPzU37wC8ymkV0u-85">
          <mxGeometry relative="1" as="geometry">
            <mxPoint x="443.25" y="70" as="targetPoint" />
          </mxGeometry>
        </mxCell>
        <mxCell id="Mb-qoXPzU37wC8ymkV0u-94" value="" style="edgeStyle=orthogonalEdgeStyle;rounded=0;orthogonalLoop=1;jettySize=auto;html=1;entryX=0.5;entryY=0;entryDx=0;entryDy=0;entryPerimeter=0;" edge="1" parent="WIyWlLk6GJQsqaUBKTNV-1" source="Mb-qoXPzU37wC8ymkV0u-85" target="Mb-qoXPzU37wC8ymkV0u-95">
          <mxGeometry relative="1" as="geometry">
            <mxPoint x="452.5" y="250" as="sourcePoint" />
            <mxPoint x="452.5" y="420" as="targetPoint" />
          </mxGeometry>
        </mxCell>
        <mxCell id="Mb-qoXPzU37wC8ymkV0u-95" value="Release ID" style="rounded=1;whiteSpace=wrap;html=1;absoluteArcSize=1;arcSize=14;strokeWidth=2;" vertex="1" parent="WIyWlLk6GJQsqaUBKTNV-1">
          <mxGeometry x="395" y="300" width="100" height="60" as="geometry" />
        </mxCell>
        <mxCell id="Mb-qoXPzU37wC8ymkV0u-96" value="Confiscate ID" style="rounded=1;whiteSpace=wrap;html=1;absoluteArcSize=1;arcSize=14;strokeWidth=2;" vertex="1" parent="WIyWlLk6GJQsqaUBKTNV-1">
          <mxGeometry x="380" y="100" width="128.75" height="40" as="geometry" />
        </mxCell>
        <mxCell id="Mb-qoXPzU37wC8ymkV0u-98" value="End" style="strokeWidth=2;html=1;shape=mxgraph.flowchart.start_1;whiteSpace=wrap;" vertex="1" parent="WIyWlLk6GJQsqaUBKTNV-1">
          <mxGeometry x="-172.5" y="1030" width="100" height="60" as="geometry" />
        </mxCell>
        <mxCell id="Mb-qoXPzU37wC8ymkV0u-99" style="edgeStyle=orthogonalEdgeStyle;rounded=0;orthogonalLoop=1;jettySize=auto;html=1;entryX=0.5;entryY=0;entryDx=0;entryDy=0;entryPerimeter=0;" edge="1" parent="WIyWlLk6GJQsqaUBKTNV-1" source="Mb-qoXPzU37wC8ymkV0u-50" target="Mb-qoXPzU37wC8ymkV0u-98">
          <mxGeometry relative="1" as="geometry" />
        </mxCell>
        <mxCell id="Mb-qoXPzU37wC8ymkV0u-100" style="edgeStyle=orthogonalEdgeStyle;rounded=0;orthogonalLoop=1;jettySize=auto;html=1;entryX=0.855;entryY=0.145;entryDx=0;entryDy=0;entryPerimeter=0;" edge="1" parent="WIyWlLk6GJQsqaUBKTNV-1" source="Mb-qoXPzU37wC8ymkV0u-91" target="Mb-qoXPzU37wC8ymkV0u-98">
          <mxGeometry relative="1" as="geometry">
            <Array as="points">
              <mxPoint x="445" y="1040" />
              <mxPoint x="-87" y="1040" />
            </Array>
          </mxGeometry>
        </mxCell>
        <mxCell id="Mb-qoXPzU37wC8ymkV0u-101" style="edgeStyle=orthogonalEdgeStyle;rounded=0;orthogonalLoop=1;jettySize=auto;html=1;entryX=0.145;entryY=0.855;entryDx=0;entryDy=0;entryPerimeter=0;" edge="1" parent="WIyWlLk6GJQsqaUBKTNV-1" source="Mb-qoXPzU37wC8ymkV0u-39" target="Mb-qoXPzU37wC8ymkV0u-98">
          <mxGeometry relative="1" as="geometry">
            <Array as="points">
              <mxPoint x="-660" y="1081" />
            </Array>
          </mxGeometry>
        </mxCell>
        <mxCell id="Mb-qoXPzU37wC8ymkV0u-102" style="edgeStyle=orthogonalEdgeStyle;rounded=0;orthogonalLoop=1;jettySize=auto;html=1;entryX=0.855;entryY=0.855;entryDx=0;entryDy=0;entryPerimeter=0;" edge="1" parent="WIyWlLk6GJQsqaUBKTNV-1" source="Mb-qoXPzU37wC8ymkV0u-92" target="Mb-qoXPzU37wC8ymkV0u-98">
          <mxGeometry relative="1" as="geometry">
            <Array as="points">
              <mxPoint x="653" y="1081" />
            </Array>
          </mxGeometry>
        </mxCell>
        <mxCell id="Mb-qoXPzU37wC8ymkV0u-103" style="edgeStyle=orthogonalEdgeStyle;rounded=0;orthogonalLoop=1;jettySize=auto;html=1;entryX=0.145;entryY=0.145;entryDx=0;entryDy=0;entryPerimeter=0;" edge="1" parent="WIyWlLk6GJQsqaUBKTNV-1" source="Mb-qoXPzU37wC8ymkV0u-53" target="Mb-qoXPzU37wC8ymkV0u-98">
          <mxGeometry relative="1" as="geometry">
            <Array as="points">
              <mxPoint x="-390" y="1039" />
            </Array>
          </mxGeometry>
        </mxCell>
      </root>
    </mxGraphModel>
  </diagram>
</mxfile>
